<?xml version="1.0" encoding="UTF-8" standalone="no"?>
<!-- Created with Inkscape (http://www.inkscape.org/) -->
<svg
   xmlns:dc="http://purl.org/dc/elements/1.1/"
   xmlns:cc="http://web.resource.org/cc/"
   xmlns:rdf="http://www.w3.org/1999/02/22-rdf-syntax-ns#"
   xmlns:svg="http://www.w3.org/2000/svg"
   xmlns="http://www.w3.org/2000/svg"
   xmlns:sodipodi="http://inkscape.sourceforge.net/DTD/sodipodi-0.dtd"
   xmlns:inkscape="http://www.inkscape.org/namespaces/inkscape"
   height="297mm"
   width="210mm"
   id="svg2"
   sodipodi:version="0.32"
   inkscape:version="0.43"
   sodipodi:docbase="/home/soldier/workspace/aquamat/files"
   sodipodi:docname="logo.svg"
   inkscape:export-filename="/home/soldier/workspace/carnivore/public/images/articles/other/logo.png"
   inkscape:export-xdpi="90"
   inkscape:export-ydpi="90">
  <defs
     id="defs4" />
  <sodipodi:namedview
     id="base"
     pagecolor="#ffffff"
     bordercolor="#666666"
     borderopacity="1.0"
     inkscape:pageopacity="0.0"
     inkscape:pageshadow="2"
     inkscape:cx="372.04724"
     inkscape:cy="526.18109"
     inkscape:zoom="0.49412646"
     inkscape:document-units="px"
     inkscape:current-layer="layer1"
     showguides="true"
     inkscape:guide-bbox="true"
     showgrid="true"
     inkscape:window-width="1070"
     inkscape:window-height="686"
     inkscape:window-x="127"
     inkscape:window-y="63">
    <sodipodi:guide
       orientation="horizontal"
       position="500.75461"
       id="guide2192" />
  </sodipodi:namedview>
  <metadata
     id="metadata7">
    <rdf:RDF>
      <cc:Work
         rdf:about="">
        <dc:format>image/svg+xml</dc:format>
        <dc:type
           rdf:resource="http://purl.org/dc/dcmitype/StillImage" />
      </cc:Work>
    </rdf:RDF>
  </metadata>
  <g
     inkscape:groupmode="layer"
     inkscape:label="Warstwa 1"
     id="layer1">
    <g
       id="g3099"
       transform="matrix(0.591087,0,0,0.574119,33.53088,262.4769)">
      <text
         sodipodi:linespacing="125%"
         transform="scale(0.92244,1.084081)"
         id="text1311"
         y="666.33588"
         x="89.619713"
         style="font-size:123.74297333px;font-style:normal;font-variant:normal;font-weight:normal;font-stretch:normal;text-align:start;line-height:125%;writing-mode:lr-tb;text-anchor:start;fill:#a41c38;fill-opacity:1;stroke:none;stroke-width:1px;stroke-linecap:butt;stroke-linejoin:miter;stroke-opacity:1;font-family:Impact"
         xml:space="preserve"><tspan
           y="666.33588"
           x="89.619713"
           id="tspan1313"
           sodipodi:role="line">A</tspan></text>
      <text
         sodipodi:linespacing="125%"
         transform="scale(0.838203,1.193028)"
         id="text1315"
         y="604.03967"
         x="170.13857"
         style="font-size:88.33728027px;font-style:normal;font-variant:normal;font-weight:normal;font-stretch:normal;text-align:start;line-height:125%;writing-mode:lr-tb;text-anchor:start;fill:#000000;fill-opacity:1;stroke:none;stroke-width:1px;stroke-linecap:butt;stroke-linejoin:miter;stroke-opacity:1;font-family:Impact"
         xml:space="preserve"><tspan
           y="604.03967"
           x="170.13857"
           id="tspan1317"
           sodipodi:role="line">quamat</tspan></text>
      <path
         d="M 143.00575,642.70416 C 142.89894,639.1331 144.28271,636.07036 146.79835,632.96396 C 156.79217,621.83702 175.82534,616.26479 193.78101,616.36347 C 217.03007,616.79005 238.20321,623.51321 258.71654,630.68881 C 280.0963,638.64698 303.25972,642.71671 326.96512,638.45023 C 324.61186,639.53533 335.87332,635.87642 333.68138,636.58076 C 316.66602,642.04822 333.24872,637.11206 336.16799,630.99477 C 336.2097,630.8977 336.25142,630.80063 336.29313,630.70362 L 349.58668,627.11948 C 349.53771,627.23522 349.48873,627.35096 349.43975,627.4667 C 344.20635,636.64525 328.8425,640.21931 316.92122,643.06568 C 293.20607,646.69763 270.40452,642.34209 249.17701,634.44253 C 228.53286,627.24671 206.9017,620.84499 183.54045,620.84516 C 178.75265,620.92962 174.04071,621.10211 169.41594,622.08836 C 168.41197,622.3024 165.52905,623.19198 166.44927,622.83206 C 186.07929,615.15399 161.71226,624.77887 159.17428,629.85709 C 156.91117,632.6834 155.40333,635.58938 156.45098,638.8506 L 143.00575,642.70416 z "
         id="path2206"
         style="fill:#5e30f4;fill-opacity:0.85775865;fill-rule:nonzero;stroke:none;stroke-width:1px;stroke-linecap:butt;stroke-linejoin:miter;stroke-opacity:1" />
    </g>
  </g>
</svg>
